<svg xmlns="http://www.w3.org/2000/svg" width="24" height="24"><g data-name="グループ 337"><path data-name="長方形 23079" fill="none" d="M0 0h24v24H0z"/><path data-name="Icon awesome-twitter" d="M20.5 8.447c.012.173.012.346.012.52a11.293 11.293 0 01-11.375 11.37A11.294 11.294 0 013 18.543a8.268 8.268 0 00.965.049 8 8 0 004.962-1.707 4 4 0 01-3.737-2.771 5.04 5.04 0 00.755.062A4.227 4.227 0 007 14.039a4 4 0 01-3.208-3.92v-.051a4.025 4.025 0 001.808.507A4 4 0 014.361 5.23 11.36 11.36 0 0012.6 9.412a4.512 4.512 0 01-.1-.916 4 4 0 016.917-2.734 7.868 7.868 0 002.536-.965A3.986 3.986 0 0120.2 6.999a8.012 8.012 0 002.3-.619 8.591 8.591 0 01-2 2.066z" fill="#222"/></g></svg>