<svg xmlns="http://www.w3.org/2000/svg" width="24" height="24"><g data-name="グループ 334"><path data-name="長方形 23082" fill="none" d="M0 0h24v24H0z"/><path data-name="Icon awesome-youtube" d="M22.561 6.81a2.639 2.639 0 00-1.857-1.869c-1.638-.442-8.2-.442-8.2-.442s-6.567 0-8.2.442A2.639 2.639 0 002.439 6.81 27.681 27.681 0 002 11.9a27.681 27.681 0 00.439 5.087 2.6 2.6 0 001.857 1.839c1.638.442 8.2.442 8.2.442s6.567 0 8.2-.442a2.6 2.6 0 001.857-1.839A27.681 27.681 0 0023 11.9a27.681 27.681 0 00-.439-5.087zM10.35 15.02V8.775l5.491 3.125-5.491 3.12z" fill="#fff"/></g></svg>