<svg xmlns="http://www.w3.org/2000/svg" width="163" height="85.237"><path fill="none" d="M0 0h163v82.325H0z"/><path d="M39.274 27.617q.061.436.24 1.562t.262 1.72a14.569 14.569 0 01.112 1.52 9.584 9.584 0 01-.097 1.75q-.012.203-.297 2.485a30.671 30.671 0 01-.57 3.413A52.46 52.46 0 0133.02 53.54a66.949 66.949 0 01-7.513 10.346 39.117 39.117 0 01-5.386 5.079 17.523 17.523 0 01-3.75 2.345 12.941 12.941 0 01-2.751.83 3.685 3.685 0 01-3.403-1.218 7.4 7.4 0 00-.539-.53q-.347-.315-.63-.598a5.848 5.848 0 01-.479-.539 5.415 5.415 0 01-.963-1.965 20.64 20.64 0 01-.272-4.526q.059-1.018.214-2.211t.356-2.07q.2-.876.497-2.21t.434-2.081q.023-.125.713-2.403-.282-.283-.736-.785t-.807-.856q-.353-.354-.675-.632a2.937 2.937 0 01-.936-1.484 4.6 4.6 0 01-.16-1.715 12.293 12.293 0 01.31-2.972 18.682 18.682 0 01.775-2.674q.43-1.11 1.13-2.744a47.616 47.616 0 016.069-9.982 32.614 32.614 0 016.231-6.248 13.759 13.759 0 015.617-2.566 9.962 9.962 0 018.645 2.016 11.827 11.827 0 013.43 4.567 5.033 5.033 0 00.236.533 5.031 5.031 0 01.236.532 3.639 3.639 0 01.36.838zm-2.137 4.622q.006-.243.005-1.111t-.034-1.248q-.033-.379-.108-1.055a7.289 7.289 0 00-.232-1.22 8.4 8.4 0 00-.393-1.075.614.614 0 01-.113-.227 4.584 4.584 0 00-2.538-3.4 8.827 8.827 0 00-8.41-.352 20.344 20.344 0 00-6.093 4.653 43.506 43.506 0 00-5.804 7.844 37.247 37.247 0 00-4.613 11.15 3.6 3.6 0 00.514 2.513.834.834 0 001.069.416q.523-1.447.552-1.532.153-.345.81-1.85t.987-2.32a36.117 36.117 0 014.413-7.973 3.733 3.733 0 012.136-1.471q.187.176.438.383t.548.448q.296.24.522.411-.035.328-.062.857t-.032.772q-.204-.012-.492-.052a1.716 1.716 0 00-.447-.018 64.68 64.68 0 00-4.13 7.407q-2 4.159-1.862 5.432 1.166-.326 1.246-.337a22.424 22.424 0 006.233-2.209q.98-.5 5.245-2.918a4.967 4.967 0 012.954-.82 1.854 1.854 0 01-.428 1.838 16.354 16.354 0 01-2.415 2.36 36.318 36.318 0 01-7.04 3.655 19.379 19.379 0 01-7.017 1.228 6.285 6.285 0 00-.262.724 58.049 58.049 0 00-1.915 8.509 17.383 17.383 0 00-.169 4.83 11.049 11.049 0 00.753 2.197 1.444 1.444 0 001.486.801 6.34 6.34 0 003.312-1.152 34.667 34.667 0 008.327-7.431 68.673 68.673 0 006.986-10.07 54.523 54.523 0 004.674-10.432q.103-.419.274-1.21t.252-1.086a21.983 21.983 0 00.873-5.859zm17.235 13.13a2.984 2.984 0 01.503 2.433 12.719 12.719 0 01-3.455 6.747q-.068.09-1.264 1.349a2.239 2.239 0 01-.792-.03 2.619 2.619 0 01-.613-.197 7.4 7.4 0 01-.687-.429 6.781 6.781 0 00-.598-.38 2.2 2.2 0 011.022-1.638 10.724 10.724 0 003.532-6.192q-.765.592-.804.598a29.815 29.815 0 00-4.032 6.666A49.144 49.144 0 0043.77 65.64q-.424 2.16-1.23 6.192t-1.025 5.072q-.063.413-.217 1.323t-.253 1.368a1.825 1.825 0 01-.97 1.43q-1.023-.382-2.26-.854a6.822 6.822 0 01.095-2.478q.092-.497.219-1.464a10.724 10.724 0 01.235-1.346q.086-.537.76-3.924t.952-5.163q.774-4.552 1.105-8.517.133-1.351.455-8.546a2.724 2.724 0 00-.01-.787 3.877 3.877 0 01-.02-.865q.04-.288.516-3.223.114-.057.244-.136a1.255 1.255 0 01.226-.112q.097-.034.173-.065a.782.782 0 00.15-.081 1.613 1.613 0 01.963.53 1.571 1.571 0 01.504 1 7.552 7.552 0 01.06 1.567q.003.606-.088 2.113t-.098 2.316l.222 1.585a6.714 6.714 0 00.494-.797q.767-1.44 1.219-2.251t1.237-1.972a17 17 0 011.558-1.996 11.288 11.288 0 011.763-1.54 2.154 2.154 0 011.341-.512 1.915 1.915 0 011.187.681 15.83 15.83 0 011.095 1.18zM71.19 42.6a5.65 5.65 0 01-.364 3.444 16.986 16.986 0 01-3.962 5.727 8.537 8.537 0 01-2.855 1.815 4.829 4.829 0 01-2.863.18 4.586 4.586 0 01-2.417-1.538 12.669 12.669 0 01-1.128-1.417 4.8 4.8 0 01-.298-3.553 8.942 8.942 0 012.392-4.537.929.929 0 00.202-.29 1.247 1.247 0 01.235-.337 9.043 9.043 0 011.326-1.196 2.3 2.3 0 013.41.692.7.7 0 00.107.187.931.931 0 00.192.215 3.2 3.2 0 01.775 1.346A2.966 2.966 0 0166 44.764a4.7 4.7 0 01-.484 1.3 4.46 4.46 0 01-.837 1.087 5.882 5.882 0 01-4.768 2.003l-.356.05a2.365 2.365 0 00.098 1.42 1.489 1.489 0 001.074.597 4.264 4.264 0 002.557-.198 9.142 9.142 0 003.344-2.651 13.635 13.635 0 003.193-6.306 4.074 4.074 0 01.358-.616 1.219 1.219 0 011.01 1.151zm-8.005.236a7.356 7.356 0 00-2.763 3.62 3.837 3.837 0 002.314-1.355 2.471 2.471 0 00.45-2.265zM84.03 41.12a1.855 1.855 0 01.708 2.162 4.086 4.086 0 01-.716 1.232q-1.19 1.298-2.824 2.901a4.01 4.01 0 01-3.05.994 4.652 4.652 0 01-.532-.47 2.868 2.868 0 01-.448-.604q-.189-.337-.301-.563a5.076 5.076 0 01-.262-.71q-.148-.485-.196-.68t-.188-.761q-.14-.566-.162-.725a14.437 14.437 0 00-1.878 2.445q-1.698 2.582-1.998 3.028a2.8 2.8 0 01-1.593 1.314 1.689 1.689 0 01-.768-.437 5.208 5.208 0 01-.68-.813 4.128 4.128 0 00-.561-.689q.091-.498.218-1.323t.226-1.405q.1-.58.24-1.307t.256-1.348q.102-.418.157-.608a3.5 3.5 0 01.21-.514 1.1 1.1 0 01.417-.483 1.843 1.843 0 01.696-.219 3.847 3.847 0 011.007 2.565q2.411-3.247 2.723-3.614a4.1 4.1 0 011.428-1.05 1.19 1.19 0 011.685.491 5.623 5.623 0 01.958 3.945q-.028.085.003 1.454a8.532 8.532 0 002.895-2.104 18.236 18.236 0 012.33-2.104zm22.867-20.947a27.289 27.289 0 00.02-5.9q-.233-2.229-.356-2.818a1.154 1.154 0 00-.16-.421q-.133-.224-.31-.482a3.6 3.6 0 01-.235-.371 3.151 3.151 0 00-2.792 1.402 35.941 35.941 0 00-2.662 4.05 78.721 78.721 0 00-5.738 13.49q-.33 1.097-.83 2.722t-.86 2.787q-.362 1.162-.798 2.657t-.824 2.761a55.353 55.353 0 00-2.004 13.046 18.3 18.3 0 00.242 3.44 3.041 3.041 0 001.087 1.988 8.279 8.279 0 003.295-1.27 18.1 18.1 0 003.091-2.435q1.42-1.391 3.19-3.457 1.424-1.655 3.07-3.885t2.448-3.414q.803-1.184 2.773-4.126a24.1 24.1 0 011.82-2.276 2.186 2.186 0 011.7-.845 3.308 3.308 0 01.175 2.682 20.023 20.023 0 01-2.972 5.588q-.34.452-.828 1.146t-.846 1.17q-.357.474-.83 1.126t-.866 1.172l-.851 1.13q-.46.61-.871 1.132t-.877 1.092q-.465.57-.916 1.098t-.938 1.082a25.959 25.959 0 01-7.169 5.612q-2.736 1.515-4.745-.424l-.972-.732a4.716 4.716 0 01-1.196-1.185 3.16 3.16 0 00-.301-.563 6.525 6.525 0 01-.378-.674 3.846 3.846 0 01-.222-.575 14.961 14.961 0 01-.362-5.16 13.808 13.808 0 00.194-2.067q.052-1.36.132-1.937a71.482 71.482 0 012.31-10.867q1.5-5.14 3.766-11.719a85.536 85.536 0 013.634-8.347 41.4 41.4 0 014.003-6.864 8.274 8.274 0 013.044-2.487q1.546-.783 3.624.783a7.368 7.368 0 013.163 6.988q-.11.944-.304 2.001t-.492 2.392q-.297 1.335-.406 1.996l-.452 2.245-.139.02a.52.52 0 01-.161.002.443.443 0 00-.141 0 .279.279 0 01-.122-.004.313.313 0 01-.088-.048 2.4 2.4 0 01-.676-1.076 8.137 8.137 0 01-.09-2.37zm18.378 18.099q-.259 1.894-.282 2.019a9.746 9.746 0 00.69 5.477l.035.258a1.081 1.081 0 01-.034.328q-.049.229-.072.353a1.739 1.739 0 01-1.887-1.068q-.118-.266-1.316-3.329-.323.288-.814.821t-.808.861a7.293 7.293 0 01-.847.725 5.13 5.13 0 01-1.005.606 4.32 4.32 0 01-1.13.3 4.733 4.733 0 01-1.354-.012q-1.568-2.243-1.675-2.43-.941-1.524.286-3.716a24.152 24.152 0 012.224-3.14 6.462 6.462 0 012.556-1.935 1.956 1.956 0 011.468-.045 2.429 2.429 0 011.16.928q.006.04.541.974.204.012.676.067a7.027 7.027 0 00.755.055q.175.38.478 1.104t.355.799zm-3.65.19a1.61 1.61 0 00.05-1.663 6.222 6.222 0 00-2.08 1.443 10.091 10.091 0 00-1.877 2.304 3.384 3.384 0 00-.582 2.182l.475-.067a20.6 20.6 0 004.015-4.2zm22.942-8.637l.6.239a1.387 1.387 0 01-.75 1.276q-1.535.862-1.722.97a47.508 47.508 0 00-8.435 4.941q-.034.046-.708.706a10.2 10.2 0 013.993 2.549 6.066 6.066 0 011.63 4.416 19.587 19.587 0 01-1.526 7.243 19.385 19.385 0 01-4.406 7.163q-.142.14-1.802 1.263a1.379 1.379 0 01-1.488.047 10.665 10.665 0 01-2.31-1.493 1.344 1.344 0 01-.307-.461 6.019 6.019 0 01-.256-.813 3.206 3.206 0 00-.185-.6 3.094 3.094 0 01-.049-.922l.024-1.841q.017-1.315.065-2.271t.128-1.816q.457-4.224 1.312-9.636.246-1.408 1.495-8.046.051-.21.134-.484l.165-.548q.083-.274.134-.484l.384-2.154a29.645 29.645 0 01.663-3.042q.103-.418.336-2.067a8.509 8.509 0 01.642-2.473 3.417 3.417 0 01-.001-.868q.055-.473.112-.784t.183-.853q.125-.543.171-.792a17.866 17.866 0 011.31-4.183 1.623 1.623 0 01.8-.779 1.517 1.517 0 011.053-.128 2.014 2.014 0 011.053.741 1.81 1.81 0 01.504 1.141l-.188.39q-.441.022-.888.004a3.537 3.537 0 00-.27.522q-.105.257-.205.554a4.83 4.83 0 00-.148.526q-.049.229-.117.602t-.086.537q-.326 1.42-.71 3.574-.052.492-.196 1.481t-.201 1.442l-.092.498q-.045.249-.094.478t-.111.5a5.051 5.051 0 00-.092.498 3.8 3.8 0 01-.095.478q-.065.251-.111.5-.698 3.653-1.134 6.016-.028.085-.367 2.274 2.289-1.534 2.402-1.59a37.5 37.5 0 017.595-4.016 11.97 11.97 0 012.162-.425zm-9.224 11.394a9.339 9.339 0 00-3.885-.625q-.109.661-.366 1.99t-.419 2.341q-.16 1.012-.275 1.917-.38 3.043-.726 8.343a4.88 4.88 0 00.452 2.642q.64-.332.68-.338a13.221 13.221 0 002.808-3.868 29.739 29.739 0 002.014-4.928 18.664 18.664 0 00.699-3.936 5.031 5.031 0 00-.072-1.807 3.315 3.315 0 00-.91-1.73zm22.714-10.826a5.65 5.65 0 01-.364 3.444 16.986 16.986 0 01-3.961 5.727 8.537 8.537 0 01-2.855 1.815 4.829 4.829 0 01-2.863.18 4.586 4.586 0 01-2.418-1.538 12.669 12.669 0 01-1.128-1.417 4.8 4.8 0 01-.297-3.553 8.942 8.942 0 012.391-4.537.929.929 0 00.202-.291 1.247 1.247 0 01.235-.336 9.043 9.043 0 011.327-1.196 2.3 2.3 0 013.41.692.7.7 0 00.106.187.931.931 0 00.192.215 3.2 3.2 0 01.775 1.345 2.966 2.966 0 01.059 1.426 4.7 4.7 0 01-.484 1.3 4.46 4.46 0 01-.837 1.087 5.882 5.882 0 01-4.767 2.003l-.357.05a2.365 2.365 0 00.099 1.42 1.489 1.489 0 001.073.597 4.264 4.264 0 002.558-.198 9.142 9.142 0 003.343-2.651 13.635 13.635 0 003.194-6.306 4.074 4.074 0 01.357-.616 1.219 1.219 0 011.01 1.15zm-8.005.236a7.356 7.356 0 00-2.763 3.62 3.837 3.837 0 002.314-1.355 2.471 2.471 0 00.45-2.265z" fill="#222"/><path data-name="パス 54665" d="M73.08 79.897h2.73v-1.05h-2.73zm10.24 2.48a2.323 2.323 0 001.55-.72h.03l.12.58h1.19v-7.98h-1.47v1.97l.06.88a1.927 1.927 0 00-1.42-.61c-1.21 0-2.35 1.12-2.35 2.95s.9 2.93 2.29 2.93zm.38-1.21c-.74 0-1.16-.58-1.16-1.74 0-1.12.53-1.72 1.16-1.72a1.488 1.488 0 011.04.42v2.46a1.246 1.246 0 01-1.04.58zm5.09 1.07h1.46v-5.6h-1.46zm.74-6.5a.814.814 0 00.87-.8.8.8 0 00-.87-.8.806.806 0 00-.88.8.817.817 0 00.88.8zm4.9 6.64c1.46 0 2.23-.79 2.23-1.77 0-1.04-.82-1.41-1.56-1.69-.59-.22-1.14-.37-1.14-.78 0-.32.24-.54.74-.54a2.156 2.156 0 011.21.48l.66-.89a3.134 3.134 0 00-1.91-.69c-1.26 0-2.08.71-2.08 1.72 0 .93.82 1.36 1.53 1.63.59.23 1.17.42 1.17.84 0 .35-.25.59-.81.59a2.431 2.431 0 01-1.5-.61l-.67.92a3.529 3.529 0 002.13.79zm4.35-.14h1.46v-3.85a1.609 1.609 0 011.17-.63c.55 0 .79.31.79 1.17v3.31h1.47v-3.49c0-1.41-.52-2.25-1.73-2.25a2.549 2.549 0 00-1.76.82l.06-1.05v-2.01h-1.46zm11.58-2.05a1.422 1.422 0 01.61-1.04 10.475 10.475 0 001.67 1.73 2.005 2.005 0 01-1.08.37 1.082 1.082 0 01-1.2-1.06zm.74-3.61c0-.55.31-.9.74-.9.39 0 .56.27.56.64 0 .54-.45.9-1.03 1.25a2.307 2.307 0 01-.27-.99zm4.75 4.6a4.493 4.493 0 01-1.31-.53 8.133 8.133 0 001.25-2.54h-1.33a5.581 5.581 0 01-.91 1.88 9.368 9.368 0 01-1.6-1.54c.79-.55 1.59-1.16 1.59-2.14a1.564 1.564 0 00-1.72-1.61 1.844 1.844 0 00-1.94 1.88 3.492 3.492 0 00.47 1.6 2.456 2.456 0 00-1.39 2.1 2.158 2.158 0 002.42 2.1 3.581 3.581 0 002.27-.78 5.976 5.976 0 001.84.78zm7.64 1.2a2.778 2.778 0 001.83-.68l-.58-.97a1.739 1.739 0 01-1.09.45c-.81 0-1.39-.68-1.39-1.73s.58-1.75 1.43-1.75a1.278 1.278 0 01.86.37l.7-.95a2.448 2.448 0 00-1.63-.62 2.8 2.8 0 00-2.86 2.95 2.676 2.676 0 002.73 2.93zm5.93 0a2.729 2.729 0 002.69-2.93 2.735 2.735 0 00-2.69-2.95 2.735 2.735 0 00-2.69 2.95 2.729 2.729 0 002.69 2.93zm0-1.2c-.76 0-1.19-.68-1.19-1.73s.43-1.75 1.19-1.75 1.19.69 1.19 1.75-.43 1.73-1.19 1.73zm8.13-6.86a2.936 2.936 0 00-1.06-.2 1.816 1.816 0 00-1.95 2.07v.46l-.75.06v1.09h.75v4.44h1.47v-4.44h1.05v-1.16h-1.05v-.48c0-.62.24-.88.68-.88a1.825 1.825 0 01.59.12zm4.72 0a2.936 2.936 0 00-1.06-.2 1.816 1.816 0 00-1.95 2.07v.46l-.75.06v1.09h.75v4.44h1.47v-4.44h1.05v-1.16h-1.05v-.48c0-.62.24-.88.68-.88a1.825 1.825 0 01.59.12zm3.77 8.06a3.533 3.533 0 001.96-.62l-.5-.9a2.308 2.308 0 01-1.26.39 1.471 1.471 0 01-1.55-1.4h3.45a2.732 2.732 0 00.07-.67c0-1.55-.8-2.68-2.34-2.68a2.741 2.741 0 00-2.61 2.95 2.714 2.714 0 002.78 2.93zm-1.37-3.5a1.263 1.263 0 011.22-1.24c.72 0 1.06.48 1.06 1.24zm8.18 3.5a3.533 3.533 0 001.96-.62l-.5-.9a2.308 2.308 0 01-1.26.39 1.471 1.471 0 01-1.55-1.4h3.45a2.732 2.732 0 00.07-.67c0-1.55-.8-2.68-2.34-2.68a2.741 2.741 0 00-2.61 2.95 2.714 2.714 0 002.78 2.93zm-1.37-3.5a1.263 1.263 0 011.22-1.24c.72 0 1.06.48 1.06 1.24zm8.72 1.02h2.73v-1.05h-2.73z" fill="#222"/></svg>