<?xml version="1.0" encoding="utf-8"?><svg xmlns="http://www.w3.org/2000/svg" xmlns:xlink="http://www.w3.org/1999/xlink"><symbol viewBox="0 0 7.814 13.628" id="arrow-right" xmlns="http://www.w3.org/2000/svg"><path d="M1 13.628a1 1 0 01-.707-1.707L5.4 6.814.293 1.707A1 1 0 011.707.293l5.814 5.814a1 1 0 010 1.414l-5.814 5.814a1 1 0 01-.707.293z" fill="#fff"/></symbol><symbol viewBox="0 0 24 24" id="icon-instagram" xmlns="http://www.w3.org/2000/svg"><path fill="none" d="M0 0h24v24H0z"/><path d="M13.005 7.384a4.614 4.614 0 104.614 4.614 4.607 4.607 0 00-4.614-4.614zm0 7.614a3 3 0 113-3 3.005 3.005 0 01-3 2.999zm5.879-7.8a1.076 1.076 0 11-1.079-1.079 1.074 1.074 0 011.076 1.076zM21.94 8.29a5.326 5.326 0 00-1.454-3.771 5.361 5.361 0 00-3.774-1.457c-1.486-.084-5.939-.084-7.425 0a5.353 5.353 0 00-3.771 1.45 5.343 5.343 0 00-1.453 3.771c-.084 1.486-.084 5.939 0 7.425a5.326 5.326 0 001.454 3.771 5.368 5.368 0 003.77 1.453c1.486.084 5.939.084 7.425 0a5.326 5.326 0 003.771-1.454 5.361 5.361 0 001.454-3.771c.084-1.486.084-5.935 0-7.421zm-1.923 9.012a3.037 3.037 0 01-1.712 1.711c-1.185.47-4 .361-5.3.361s-4.124.1-5.3-.361a3.037 3.037 0 01-1.719-1.711c-.47-1.185-.361-4-.361-5.3s-.1-4.124.361-5.3a3.037 3.037 0 011.711-1.72c1.185-.47 4-.361 5.3-.361s4.124-.1 5.3.361a3.037 3.037 0 011.711 1.711c.47 1.185.361 4 .361 5.3s.118 4.129-.352 5.309z" fill="#222"/></symbol><symbol viewBox="0 0 24 24" id="icon-instagram02" xmlns="http://www.w3.org/2000/svg"><path fill="none" d="M0 0h24v24H0z"/><path d="M13.005 7.384a4.614 4.614 0 104.614 4.614 4.607 4.607 0 00-4.614-4.614zm0 7.614a3 3 0 113-3 3.005 3.005 0 01-3 2.999zm5.879-7.8a1.076 1.076 0 11-1.079-1.079 1.074 1.074 0 011.076 1.076zM21.94 8.29a5.326 5.326 0 00-1.454-3.771 5.361 5.361 0 00-3.774-1.457c-1.486-.084-5.939-.084-7.425 0a5.353 5.353 0 00-3.771 1.45 5.343 5.343 0 00-1.453 3.771c-.084 1.486-.084 5.939 0 7.425a5.326 5.326 0 001.454 3.771 5.368 5.368 0 003.77 1.453c1.486.084 5.939.084 7.425 0a5.326 5.326 0 003.771-1.454 5.361 5.361 0 001.454-3.771c.084-1.486.084-5.935 0-7.421zm-1.923 9.012a3.037 3.037 0 01-1.712 1.711c-1.185.47-4 .361-5.3.361s-4.124.1-5.3-.361a3.037 3.037 0 01-1.719-1.711c-.47-1.185-.361-4-.361-5.3s-.1-4.124.361-5.3a3.037 3.037 0 011.711-1.72c1.185-.47 4-.361 5.3-.361s4.124-.1 5.3.361a3.037 3.037 0 011.711 1.711c.47 1.185.361 4 .361 5.3s.118 4.129-.352 5.309z" fill="#fff"/></symbol><symbol viewBox="0 0 24 24" id="icon-twitter" xmlns="http://www.w3.org/2000/svg"><path fill="none" d="M0 0h24v24H0z"/><path d="M20.5 8.447c.012.173.012.346.012.52a11.293 11.293 0 01-11.375 11.37A11.294 11.294 0 013 18.543a8.268 8.268 0 00.965.049 8 8 0 004.962-1.707 4 4 0 01-3.737-2.771 5.04 5.04 0 00.755.062A4.227 4.227 0 007 14.039a4 4 0 01-3.208-3.92v-.051a4.025 4.025 0 001.808.507A4 4 0 014.361 5.23 11.36 11.36 0 0012.6 9.412a4.512 4.512 0 01-.1-.916 4 4 0 016.917-2.734 7.868 7.868 0 002.536-.965A3.986 3.986 0 0120.2 6.999a8.012 8.012 0 002.3-.619 8.591 8.591 0 01-2 2.066z" fill="#222"/></symbol><symbol viewBox="0 0 24 24" id="icon-twitter02" xmlns="http://www.w3.org/2000/svg"><path fill="none" d="M0 0h24v24H0z"/><path d="M20.5 8.447c.012.173.012.346.012.52a11.293 11.293 0 01-11.375 11.37A11.294 11.294 0 013 18.543a8.268 8.268 0 00.965.049 8 8 0 004.962-1.707 4 4 0 01-3.737-2.771 5.04 5.04 0 00.755.062A4.227 4.227 0 007 14.039a4 4 0 01-3.208-3.92v-.051a4.025 4.025 0 001.808.507A4 4 0 014.361 5.23 11.36 11.36 0 0012.6 9.412a4.512 4.512 0 01-.1-.916 4 4 0 016.917-2.734 7.868 7.868 0 002.536-.965A3.986 3.986 0 0120.2 6.999a8.012 8.012 0 002.3-.619 8.591 8.591 0 01-2 2.066z" fill="#fff"/></symbol><symbol viewBox="0 0 24 24" id="icon-youtube" xmlns="http://www.w3.org/2000/svg"><path fill="none" d="M0 0h24v24H0z"/><path d="M22.561 6.81a2.639 2.639 0 00-1.857-1.869c-1.638-.442-8.2-.442-8.2-.442s-6.567 0-8.2.442A2.639 2.639 0 002.439 6.81 27.681 27.681 0 002 11.9a27.681 27.681 0 00.439 5.087 2.6 2.6 0 001.857 1.839c1.638.442 8.2.442 8.2.442s6.567 0 8.2-.442a2.6 2.6 0 001.857-1.839A27.681 27.681 0 0023 11.9a27.681 27.681 0 00-.439-5.087zM10.35 15.02V8.775l5.491 3.125-5.491 3.12z" fill="#222"/></symbol><symbol viewBox="0 0 24 24" id="icon-youtube02" xmlns="http://www.w3.org/2000/svg"><path fill="none" d="M0 0h24v24H0z"/><path d="M22.561 6.81a2.639 2.639 0 00-1.857-1.869c-1.638-.442-8.2-.442-8.2-.442s-6.567 0-8.2.442A2.639 2.639 0 002.439 6.81 27.681 27.681 0 002 11.9a27.681 27.681 0 00.439 5.087 2.6 2.6 0 001.857 1.839c1.638.442 8.2.442 8.2.442s6.567 0 8.2-.442a2.6 2.6 0 001.857-1.839A27.681 27.681 0 0023 11.9a27.681 27.681 0 00-.439-5.087zM10.35 15.02V8.775l5.491 3.125-5.491 3.12z" fill="#fff"/></symbol><symbol viewBox="0 0 163 85.237" id="logo" xmlns="http://www.w3.org/2000/svg"><path fill="none" d="M0 0h163v82.325H0z"/><path d="M39.274 27.617q.061.436.24 1.562t.262 1.72a14.569 14.569 0 01.112 1.52 9.584 9.584 0 01-.097 1.75q-.012.203-.297 2.485a30.671 30.671 0 01-.57 3.413A52.46 52.46 0 0133.02 53.54a66.949 66.949 0 01-7.513 10.346 39.117 39.117 0 01-5.386 5.079 17.523 17.523 0 01-3.75 2.345 12.941 12.941 0 01-2.751.83 3.685 3.685 0 01-3.403-1.218 7.4 7.4 0 00-.539-.53q-.347-.315-.63-.598a5.848 5.848 0 01-.479-.539 5.415 5.415 0 01-.963-1.965 20.64 20.64 0 01-.272-4.526q.059-1.018.214-2.211t.356-2.07q.2-.876.497-2.21t.434-2.081q.023-.125.713-2.403-.282-.283-.736-.785t-.807-.856q-.353-.354-.675-.632a2.937 2.937 0 01-.936-1.484 4.6 4.6 0 01-.16-1.715 12.293 12.293 0 01.31-2.972 18.682 18.682 0 01.775-2.674q.43-1.11 1.13-2.744a47.616 47.616 0 016.069-9.982 32.614 32.614 0 016.231-6.248 13.759 13.759 0 015.617-2.566 9.962 9.962 0 018.645 2.016 11.827 11.827 0 013.43 4.567 5.033 5.033 0 00.236.533 5.031 5.031 0 01.236.532 3.639 3.639 0 01.36.838zm-2.137 4.622q.006-.243.005-1.111t-.034-1.248q-.033-.379-.108-1.055a7.289 7.289 0 00-.232-1.22 8.4 8.4 0 00-.393-1.075.614.614 0 01-.113-.227 4.584 4.584 0 00-2.538-3.4 8.827 8.827 0 00-8.41-.352 20.344 20.344 0 00-6.093 4.653 43.506 43.506 0 00-5.804 7.844 37.247 37.247 0 00-4.613 11.15 3.6 3.6 0 00.514 2.513.834.834 0 001.069.416q.523-1.447.552-1.532.153-.345.81-1.85t.987-2.32a36.117 36.117 0 014.413-7.973 3.733 3.733 0 012.136-1.471q.187.176.438.383t.548.448q.296.24.522.411-.035.328-.062.857t-.032.772q-.204-.012-.492-.052a1.716 1.716 0 00-.447-.018 64.68 64.68 0 00-4.13 7.407q-2 4.159-1.862 5.432 1.166-.326 1.246-.337a22.424 22.424 0 006.233-2.209q.98-.5 5.245-2.918a4.967 4.967 0 012.954-.82 1.854 1.854 0 01-.428 1.838 16.354 16.354 0 01-2.415 2.36 36.318 36.318 0 01-7.04 3.655 19.379 19.379 0 01-7.017 1.228 6.285 6.285 0 00-.262.724 58.049 58.049 0 00-1.915 8.509 17.383 17.383 0 00-.169 4.83 11.049 11.049 0 00.753 2.197 1.444 1.444 0 001.486.801 6.34 6.34 0 003.312-1.152 34.667 34.667 0 008.327-7.431 68.673 68.673 0 006.986-10.07 54.523 54.523 0 004.674-10.432q.103-.419.274-1.21t.252-1.086a21.983 21.983 0 00.873-5.859zm17.235 13.13a2.984 2.984 0 01.503 2.433 12.719 12.719 0 01-3.455 6.747q-.068.09-1.264 1.349a2.239 2.239 0 01-.792-.03 2.619 2.619 0 01-.613-.197 7.4 7.4 0 01-.687-.429 6.781 6.781 0 00-.598-.38 2.2 2.2 0 011.022-1.638 10.724 10.724 0 003.532-6.192q-.765.592-.804.598a29.815 29.815 0 00-4.032 6.666A49.144 49.144 0 0043.77 65.64q-.424 2.16-1.23 6.192t-1.025 5.072q-.063.413-.217 1.323t-.253 1.368a1.825 1.825 0 01-.97 1.43q-1.023-.382-2.26-.854a6.822 6.822 0 01.095-2.478q.092-.497.219-1.464a10.724 10.724 0 01.235-1.346q.086-.537.76-3.924t.952-5.163q.774-4.552 1.105-8.517.133-1.351.455-8.546a2.724 2.724 0 00-.01-.787 3.877 3.877 0 01-.02-.865q.04-.288.516-3.223.114-.057.244-.136a1.255 1.255 0 01.226-.112q.097-.034.173-.065a.782.782 0 00.15-.081 1.613 1.613 0 01.963.53 1.571 1.571 0 01.504 1 7.552 7.552 0 01.06 1.567q.003.606-.088 2.113t-.098 2.316l.222 1.585a6.714 6.714 0 00.494-.797q.767-1.44 1.219-2.251t1.237-1.972a17 17 0 011.558-1.996 11.288 11.288 0 011.763-1.54 2.154 2.154 0 011.341-.512 1.915 1.915 0 011.187.681 15.83 15.83 0 011.095 1.18zM71.19 42.6a5.65 5.65 0 01-.364 3.444 16.986 16.986 0 01-3.962 5.727 8.537 8.537 0 01-2.855 1.815 4.829 4.829 0 01-2.863.18 4.586 4.586 0 01-2.417-1.538 12.669 12.669 0 01-1.128-1.417 4.8 4.8 0 01-.298-3.553 8.942 8.942 0 012.392-4.537.929.929 0 00.202-.29 1.247 1.247 0 01.235-.337 9.043 9.043 0 011.326-1.196 2.3 2.3 0 013.41.692.7.7 0 00.107.187.931.931 0 00.192.215 3.2 3.2 0 01.775 1.346A2.966 2.966 0 0166 44.764a4.7 4.7 0 01-.484 1.3 4.46 4.46 0 01-.837 1.087 5.882 5.882 0 01-4.768 2.003l-.356.05a2.365 2.365 0 00.098 1.42 1.489 1.489 0 001.074.597 4.264 4.264 0 002.557-.198 9.142 9.142 0 003.344-2.651 13.635 13.635 0 003.193-6.306 4.074 4.074 0 01.358-.616 1.219 1.219 0 011.01 1.151zm-8.005.236a7.356 7.356 0 00-2.763 3.62 3.837 3.837 0 002.314-1.355 2.471 2.471 0 00.45-2.265zM84.03 41.12a1.855 1.855 0 01.708 2.162 4.086 4.086 0 01-.716 1.232q-1.19 1.298-2.824 2.901a4.01 4.01 0 01-3.05.994 4.652 4.652 0 01-.532-.47 2.868 2.868 0 01-.448-.604q-.189-.337-.301-.563a5.076 5.076 0 01-.262-.71q-.148-.485-.196-.68t-.188-.761q-.14-.566-.162-.725a14.437 14.437 0 00-1.878 2.445q-1.698 2.582-1.998 3.028a2.8 2.8 0 01-1.593 1.314 1.689 1.689 0 01-.768-.437 5.208 5.208 0 01-.68-.813 4.128 4.128 0 00-.561-.689q.091-.498.218-1.323t.226-1.405q.1-.58.24-1.307t.256-1.348q.102-.418.157-.608a3.5 3.5 0 01.21-.514 1.1 1.1 0 01.417-.483 1.843 1.843 0 01.696-.219 3.847 3.847 0 011.007 2.565q2.411-3.247 2.723-3.614a4.1 4.1 0 011.428-1.05 1.19 1.19 0 011.685.491 5.623 5.623 0 01.958 3.945q-.028.085.003 1.454a8.532 8.532 0 002.895-2.104 18.236 18.236 0 012.33-2.104zm22.867-20.947a27.289 27.289 0 00.02-5.9q-.233-2.229-.356-2.818a1.154 1.154 0 00-.16-.421q-.133-.224-.31-.482a3.6 3.6 0 01-.235-.371 3.151 3.151 0 00-2.792 1.402 35.941 35.941 0 00-2.662 4.05 78.721 78.721 0 00-5.738 13.49q-.33 1.097-.83 2.722t-.86 2.787q-.362 1.162-.798 2.657t-.824 2.761a55.353 55.353 0 00-2.004 13.046 18.3 18.3 0 00.242 3.44 3.041 3.041 0 001.087 1.988 8.279 8.279 0 003.295-1.27 18.1 18.1 0 003.091-2.435q1.42-1.391 3.19-3.457 1.424-1.655 3.07-3.885t2.448-3.414q.803-1.184 2.773-4.126a24.1 24.1 0 011.82-2.276 2.186 2.186 0 011.7-.845 3.308 3.308 0 01.175 2.682 20.023 20.023 0 01-2.972 5.588q-.34.452-.828 1.146t-.846 1.17q-.357.474-.83 1.126t-.866 1.172l-.851 1.13q-.46.61-.871 1.132t-.877 1.092q-.465.57-.916 1.098t-.938 1.082a25.959 25.959 0 01-7.169 5.612q-2.736 1.515-4.745-.424l-.972-.732a4.716 4.716 0 01-1.196-1.185 3.16 3.16 0 00-.301-.563 6.525 6.525 0 01-.378-.674 3.846 3.846 0 01-.222-.575 14.961 14.961 0 01-.362-5.16 13.808 13.808 0 00.194-2.067q.052-1.36.132-1.937a71.482 71.482 0 012.31-10.867q1.5-5.14 3.766-11.719a85.536 85.536 0 013.634-8.347 41.4 41.4 0 014.003-6.864 8.274 8.274 0 013.044-2.487q1.546-.783 3.624.783a7.368 7.368 0 013.163 6.988q-.11.944-.304 2.001t-.492 2.392q-.297 1.335-.406 1.996l-.452 2.245-.139.02a.52.52 0 01-.161.002.443.443 0 00-.141 0 .279.279 0 01-.122-.004.313.313 0 01-.088-.048 2.4 2.4 0 01-.676-1.076 8.137 8.137 0 01-.09-2.37zm18.378 18.099q-.259 1.894-.282 2.019a9.746 9.746 0 00.69 5.477l.035.258a1.081 1.081 0 01-.034.328q-.049.229-.072.353a1.739 1.739 0 01-1.887-1.068q-.118-.266-1.316-3.329-.323.288-.814.821t-.808.861a7.293 7.293 0 01-.847.725 5.13 5.13 0 01-1.005.606 4.32 4.32 0 01-1.13.3 4.733 4.733 0 01-1.354-.012q-1.568-2.243-1.675-2.43-.941-1.524.286-3.716a24.152 24.152 0 012.224-3.14 6.462 6.462 0 012.556-1.935 1.956 1.956 0 011.468-.045 2.429 2.429 0 011.16.928q.006.04.541.974.204.012.676.067a7.027 7.027 0 00.755.055q.175.38.478 1.104t.355.799zm-3.65.19a1.61 1.61 0 00.05-1.663 6.222 6.222 0 00-2.08 1.443 10.091 10.091 0 00-1.877 2.304 3.384 3.384 0 00-.582 2.182l.475-.067a20.6 20.6 0 004.015-4.2zm22.942-8.637l.6.239a1.387 1.387 0 01-.75 1.276q-1.535.862-1.722.97a47.508 47.508 0 00-8.435 4.941q-.034.046-.708.706a10.2 10.2 0 013.993 2.549 6.066 6.066 0 011.63 4.416 19.587 19.587 0 01-1.526 7.243 19.385 19.385 0 01-4.406 7.163q-.142.14-1.802 1.263a1.379 1.379 0 01-1.488.047 10.665 10.665 0 01-2.31-1.493 1.344 1.344 0 01-.307-.461 6.019 6.019 0 01-.256-.813 3.206 3.206 0 00-.185-.6 3.094 3.094 0 01-.049-.922l.024-1.841q.017-1.315.065-2.271t.128-1.816q.457-4.224 1.312-9.636.246-1.408 1.495-8.046.051-.21.134-.484l.165-.548q.083-.274.134-.484l.384-2.154a29.645 29.645 0 01.663-3.042q.103-.418.336-2.067a8.509 8.509 0 01.642-2.473 3.417 3.417 0 01-.001-.868q.055-.473.112-.784t.183-.853q.125-.543.171-.792a17.866 17.866 0 011.31-4.183 1.623 1.623 0 01.8-.779 1.517 1.517 0 011.053-.128 2.014 2.014 0 011.053.741 1.81 1.81 0 01.504 1.141l-.188.39q-.441.022-.888.004a3.537 3.537 0 00-.27.522q-.105.257-.205.554a4.83 4.83 0 00-.148.526q-.049.229-.117.602t-.086.537q-.326 1.42-.71 3.574-.052.492-.196 1.481t-.201 1.442l-.092.498q-.045.249-.094.478t-.111.5a5.051 5.051 0 00-.092.498 3.8 3.8 0 01-.095.478q-.065.251-.111.5-.698 3.653-1.134 6.016-.028.085-.367 2.274 2.289-1.534 2.402-1.59a37.5 37.5 0 017.595-4.016 11.97 11.97 0 012.162-.425zm-9.224 11.394a9.339 9.339 0 00-3.885-.625q-.109.661-.366 1.99t-.419 2.341q-.16 1.012-.275 1.917-.38 3.043-.726 8.343a4.88 4.88 0 00.452 2.642q.64-.332.68-.338a13.221 13.221 0 002.808-3.868 29.739 29.739 0 002.014-4.928 18.664 18.664 0 00.699-3.936 5.031 5.031 0 00-.072-1.807 3.315 3.315 0 00-.91-1.73zm22.714-10.826a5.65 5.65 0 01-.364 3.444 16.986 16.986 0 01-3.961 5.727 8.537 8.537 0 01-2.855 1.815 4.829 4.829 0 01-2.863.18 4.586 4.586 0 01-2.418-1.538 12.669 12.669 0 01-1.128-1.417 4.8 4.8 0 01-.297-3.553 8.942 8.942 0 012.391-4.537.929.929 0 00.202-.291 1.247 1.247 0 01.235-.336 9.043 9.043 0 011.327-1.196 2.3 2.3 0 013.41.692.7.7 0 00.106.187.931.931 0 00.192.215 3.2 3.2 0 01.775 1.345 2.966 2.966 0 01.059 1.426 4.7 4.7 0 01-.484 1.3 4.46 4.46 0 01-.837 1.087 5.882 5.882 0 01-4.767 2.003l-.357.05a2.365 2.365 0 00.099 1.42 1.489 1.489 0 001.073.597 4.264 4.264 0 002.558-.198 9.142 9.142 0 003.343-2.651 13.635 13.635 0 003.194-6.306 4.074 4.074 0 01.357-.616 1.219 1.219 0 011.01 1.15zm-8.005.236a7.356 7.356 0 00-2.763 3.62 3.837 3.837 0 002.314-1.355 2.471 2.471 0 00.45-2.265zM73.08 79.897h2.73v-1.05h-2.73zm10.24 2.48a2.323 2.323 0 001.55-.72h.03l.12.58h1.19v-7.98h-1.47v1.97l.06.88a1.927 1.927 0 00-1.42-.61c-1.21 0-2.35 1.12-2.35 2.95s.9 2.93 2.29 2.93zm.38-1.21c-.74 0-1.16-.58-1.16-1.74 0-1.12.53-1.72 1.16-1.72a1.488 1.488 0 011.04.42v2.46a1.246 1.246 0 01-1.04.58zm5.09 1.07h1.46v-5.6h-1.46zm.74-6.5a.814.814 0 00.87-.8.8.8 0 00-.87-.8.806.806 0 00-.88.8.817.817 0 00.88.8zm4.9 6.64c1.46 0 2.23-.79 2.23-1.77 0-1.04-.82-1.41-1.56-1.69-.59-.22-1.14-.37-1.14-.78 0-.32.24-.54.74-.54a2.156 2.156 0 011.21.48l.66-.89a3.134 3.134 0 00-1.91-.69c-1.26 0-2.08.71-2.08 1.72 0 .93.82 1.36 1.53 1.63.59.23 1.17.42 1.17.84 0 .35-.25.59-.81.59a2.431 2.431 0 01-1.5-.61l-.67.92a3.529 3.529 0 002.13.79zm4.35-.14h1.46v-3.85a1.609 1.609 0 011.17-.63c.55 0 .79.31.79 1.17v3.31h1.47v-3.49c0-1.41-.52-2.25-1.73-2.25a2.549 2.549 0 00-1.76.82l.06-1.05v-2.01h-1.46zm11.58-2.05a1.422 1.422 0 01.61-1.04 10.475 10.475 0 001.67 1.73 2.005 2.005 0 01-1.08.37 1.082 1.082 0 01-1.2-1.06zm.74-3.61c0-.55.31-.9.74-.9.39 0 .56.27.56.64 0 .54-.45.9-1.03 1.25a2.307 2.307 0 01-.27-.99zm4.75 4.6a4.493 4.493 0 01-1.31-.53 8.133 8.133 0 001.25-2.54h-1.33a5.581 5.581 0 01-.91 1.88 9.368 9.368 0 01-1.6-1.54c.79-.55 1.59-1.16 1.59-2.14a1.564 1.564 0 00-1.72-1.61 1.844 1.844 0 00-1.94 1.88 3.492 3.492 0 00.47 1.6 2.456 2.456 0 00-1.39 2.1 2.158 2.158 0 002.42 2.1 3.581 3.581 0 002.27-.78 5.976 5.976 0 001.84.78zm7.64 1.2a2.778 2.778 0 001.83-.68l-.58-.97a1.739 1.739 0 01-1.09.45c-.81 0-1.39-.68-1.39-1.73s.58-1.75 1.43-1.75a1.278 1.278 0 01.86.37l.7-.95a2.448 2.448 0 00-1.63-.62 2.8 2.8 0 00-2.86 2.95 2.676 2.676 0 002.73 2.93zm5.93 0a2.729 2.729 0 002.69-2.93 2.735 2.735 0 00-2.69-2.95 2.735 2.735 0 00-2.69 2.95 2.729 2.729 0 002.69 2.93zm0-1.2c-.76 0-1.19-.68-1.19-1.73s.43-1.75 1.19-1.75 1.19.69 1.19 1.75-.43 1.73-1.19 1.73zm8.13-6.86a2.936 2.936 0 00-1.06-.2 1.816 1.816 0 00-1.95 2.07v.46l-.75.06v1.09h.75v4.44h1.47v-4.44h1.05v-1.16h-1.05v-.48c0-.62.24-.88.68-.88a1.825 1.825 0 01.59.12zm4.72 0a2.936 2.936 0 00-1.06-.2 1.816 1.816 0 00-1.95 2.07v.46l-.75.06v1.09h.75v4.44h1.47v-4.44h1.05v-1.16h-1.05v-.48c0-.62.24-.88.68-.88a1.825 1.825 0 01.59.12zm3.77 8.06a3.533 3.533 0 001.96-.62l-.5-.9a2.308 2.308 0 01-1.26.39 1.471 1.471 0 01-1.55-1.4h3.45a2.732 2.732 0 00.07-.67c0-1.55-.8-2.68-2.34-2.68a2.741 2.741 0 00-2.61 2.95 2.714 2.714 0 002.78 2.93zm-1.37-3.5a1.263 1.263 0 011.22-1.24c.72 0 1.06.48 1.06 1.24zm8.18 3.5a3.533 3.533 0 001.96-.62l-.5-.9a2.308 2.308 0 01-1.26.39 1.471 1.471 0 01-1.55-1.4h3.45a2.732 2.732 0 00.07-.67c0-1.55-.8-2.68-2.34-2.68a2.741 2.741 0 00-2.61 2.95 2.714 2.714 0 002.78 2.93zm-1.37-3.5a1.263 1.263 0 011.22-1.24c.72 0 1.06.48 1.06 1.24zm8.72 1.02h2.73v-1.05h-2.73z" fill="#222"/></symbol><symbol viewBox="0 0 120 63.118" id="logo02" xmlns="http://www.w3.org/2000/svg"><path fill="none" d="M0 0h120v60.981H0z"/><path d="M28.918 20.457q.045.323.176 1.157t.193 1.274a10.859 10.859 0 01.083 1.126 7.142 7.142 0 01-.071 1.296q-.01.15-.22 1.842a22.848 22.848 0 01-.42 2.528 38.985 38.985 0 01-4.345 9.98 49.58 49.58 0 01-5.531 7.664 28.87 28.87 0 01-3.965 3.762 12.887 12.887 0 01-2.76 1.738 9.483 9.483 0 01-2.025.616 2.7 2.7 0 01-2.505-.902 5.465 5.465 0 00-.396-.393q-.256-.232-.466-.44a4.323 4.323 0 01-.353-.398 4.021 4.021 0 01-.71-1.455 15.382 15.382 0 01-.198-3.363q.043-.755.157-1.638t.261-1.533q.147-.65.366-1.638t.32-1.542q.017-.092.524-1.78-.207-.21-.542-.58t-.594-.635q-.26-.266-.497-.468a2.178 2.178 0 01-.687-1.096 3.424 3.424 0 01-.117-1.27 9.16 9.16 0 01.227-2.201 13.9 13.9 0 01.572-1.977q.316-.823.83-2.036a35.313 35.313 0 014.47-7.393 24.084 24.084 0 014.588-4.63 10.1 10.1 0 014.133-1.902 7.3 7.3 0 016.364 1.494 8.756 8.756 0 012.524 3.382 3.741 3.741 0 00.174.394 3.739 3.739 0 01.173.395 2.705 2.705 0 01.267.622zm-1.574 3.424q.005-.18.003-.823t-.029-.923q-.024-.28-.08-.782a5.429 5.429 0 00-.17-.903 6.243 6.243 0 00-.285-.798.456.456 0 01-.083-.168 3.394 3.394 0 00-1.87-2.518 6.463 6.463 0 00-6.196-.261 14.985 14.985 0 00-4.485 3.446 32.214 32.214 0 00-4.266 5.815 27.687 27.687 0 00-3.397 8.253 2.676 2.676 0 00.38 1.865.612.612 0 00.786.308q.386-1.073.406-1.135.113-.255.597-1.371t.726-1.718a26.8 26.8 0 013.248-5.91 2.748 2.748 0 011.573-1.09q.137.13.322.284l.403.332q.218.178.384.304-.026.243-.045.635t-.021.571q-.15-.008-.362-.039a1.256 1.256 0 00-.329-.013 48 48 0 00-3.04 5.486q-1.475 3.085-1.373 4.028.859-.241.916-.25a16.44 16.44 0 004.59-1.636q.72-.37 3.86-2.158a3.639 3.639 0 012.175-.609 1.379 1.379 0 01-.314 1.357 12.073 12.073 0 01-1.774 1.747 26.677 26.677 0 01-5.183 2.708 14.187 14.187 0 01-5.166.91 4.674 4.674 0 00-.193.532A43.228 43.228 0 007.64 45.67a12.956 12.956 0 00-.124 3.578 8.219 8.219 0 00.555 1.626 1.062 1.062 0 001.093.594 4.648 4.648 0 002.438-.854 25.573 25.573 0 006.13-5.506 50.879 50.879 0 005.142-7.46 40.514 40.514 0 003.444-7.731q.075-.314.202-.896t.19-.805a16.378 16.378 0 00.635-4.336zm12.688 9.73a2.221 2.221 0 01.37 1.802 9.442 9.442 0 01-2.542 4.998q-.05.066-.931.999a1.639 1.639 0 01-.583-.02 1.919 1.919 0 01-.451-.145 5.442 5.442 0 01-.506-.318 4.988 4.988 0 00-.443-.28 1.63 1.63 0 01.752-1.217 7.954 7.954 0 002.601-4.587q-.563.439-.592.443a22.111 22.111 0 00-2.968 4.938 36.57 36.57 0 00-2.514 8.405q-.31 1.6-.905 4.586t-.754 3.757q-.046.31-.165.98t-.185 1.014a1.352 1.352 0 01-.715 1.059q-.753-.283-1.664-.633a5.084 5.084 0 01.07-1.834q.067-.37.16-1.085a7.988 7.988 0 01.174-.997q.063-.398.56-2.906t.7-3.824q.57-3.372.814-6.309.098-1.001.335-6.33a2.03 2.03 0 00-.007-.584 2.89 2.89 0 01-.015-.64q.03-.214.38-2.388.083-.042.18-.1a.922.922 0 01.166-.083q.071-.025.128-.048a.574.574 0 00.11-.061 1.185 1.185 0 01.709.393 1.167 1.167 0 01.37.74 5.628 5.628 0 01.044 1.162q.003.448-.064 1.565t-.073 1.716l.165 1.174a4.98 4.98 0 00.363-.59q.565-1.068.897-1.669t.91-1.46a12.578 12.578 0 011.147-1.474 8.326 8.326 0 011.298-1.14 1.58 1.58 0 01.988-.38 1.407 1.407 0 01.874.505 11.7 11.7 0 01.812.861zm12.381-2.051a4.209 4.209 0 01-.268 2.551 12.583 12.583 0 01-2.915 4.247 6.279 6.279 0 01-2.103 1.345 3.534 3.534 0 01-2.108.134 3.374 3.374 0 01-1.776-1.14 9.376 9.376 0 01-.83-1.05 3.578 3.578 0 01-.22-2.632 6.637 6.637 0 011.761-3.36.688.688 0 00.149-.217.924.924 0 01.173-.248 6.671 6.671 0 01.978-.896 1.689 1.689 0 012.51.513.521.521 0 00.078.138.688.688 0 00.142.16 2.372 2.372 0 01.57.996 2.21 2.21 0 01.048 1.056 3.493 3.493 0 01-.357.96 3.3 3.3 0 01-.616.805 4.317 4.317 0 01-3.51 1.484l-.262.036a1.762 1.762 0 00.072 1.053 1.1 1.1 0 00.79.44 3.121 3.121 0 001.883-.146 6.736 6.736 0 002.462-1.961 10.124 10.124 0 002.35-4.673 3.023 3.023 0 01.263-.456.9.9 0 01.736.857zm-5.893.175a5.445 5.445 0 00-2.033 2.681 2.821 2.821 0 001.704-1.004 1.839 1.839 0 00.329-1.681zm15.345-1.272a1.379 1.379 0 01.52 1.602 3.031 3.031 0 01-.526.912q-.875.961-2.08 2.15a2.941 2.941 0 01-2.246.736 3.431 3.431 0 01-.39-.349 2.123 2.123 0 01-.33-.447q-.137-.25-.223-.417a3.775 3.775 0 01-.192-.527q-.11-.358-.144-.502t-.138-.565q-.104-.42-.12-.536a10.686 10.686 0 00-1.383 1.81q-1.246 1.912-1.47 2.242a2.066 2.066 0 01-1.177.974 1.241 1.241 0 01-.566-.325 3.852 3.852 0 01-.5-.602 3.054 3.054 0 00-.413-.51q.067-.37.165-.981t.167-1.041q.073-.43.177-.968t.187-.998q.076-.314.116-.45a2.6 2.6 0 01.153-.383.815.815 0 01.307-.357 1.351 1.351 0 01.513-.162 2.859 2.859 0 01.742 1.9q1.775-2.405 2.005-2.677a3.02 3.02 0 011.05-.777.873.873 0 011.241.363 4.185 4.185 0 01.706 2.922q-.022.063.002 1.078a6.282 6.282 0 002.132-1.558 13.452 13.452 0 011.714-1.561zm16.833-15.52a20.339 20.339 0 00.013-4.37q-.171-1.651-.261-2.084a.858.858 0 00-.118-.313q-.097-.166-.228-.357a2.669 2.669 0 01-.172-.278 2.315 2.315 0 00-2.055 1.039 26.64 26.64 0 00-1.96 3.002 58.509 58.509 0 00-4.224 9.992q-.243.813-.61 2.017t-.634 2.064q-.267.86-.588 1.968t-.606 2.045a41.238 41.238 0 00-1.476 9.663 13.637 13.637 0 00.177 2.549 2.256 2.256 0 00.801 1.472 6.072 6.072 0 002.426-.941 13.333 13.333 0 002.271-1.803q1.046-1.03 2.348-2.56 1.048-1.226 2.26-2.878t1.803-2.529q.59-.876 2.041-3.056a17.833 17.833 0 011.34-1.686 1.606 1.606 0 011.251-.627 2.464 2.464 0 01.13 1.987 14.864 14.864 0 01-2.188 4.138q-.25.339-.61.85t-.622.866q-.263.35-.612.834t-.638.868l-.626.836q-.34.452-.642.839t-.645.81q-.345.423-.675.813t-.695.805a19.128 19.128 0 01-5.272 4.156 2.69 2.69 0 01-3.495-.317l-.715-.541a3.483 3.483 0 01-.88-.878 2.346 2.346 0 00-.223-.417 4.842 4.842 0 01-.267-.502 2.859 2.859 0 01-.161-.426 11.149 11.149 0 01-.267-3.822 10.29 10.29 0 00.143-1.535q.038-1.008.101-1.435a53.236 53.236 0 011.697-8.05q1.104-3.806 2.772-8.68a63.569 63.569 0 012.674-6.182 30.714 30.714 0 012.937-5.08 6.1 6.1 0 012.245-1.84 2.471 2.471 0 012.668.58 5.471 5.471 0 012.33 5.176q-.081.7-.225 1.483t-.362 1.767q-.219.988-.297 1.478-.106.52-.333 1.663l-.1.014a.381.381 0 01-.118.001.324.324 0 00-.101 0 .2.2 0 01-.09-.003.23.23 0 01-.064-.036 1.781 1.781 0 01-.498-.797 6.065 6.065 0 01-.075-1.752zM92.227 28.35q-.19 1.403-.208 1.495a7.26 7.26 0 00.508 4.057l.026.191a.805.805 0 01-.025.243q-.036.17-.053.262a1.279 1.279 0 01-1.39-.791q-.087-.197-.968-2.466-.238.213-.6.608t-.595.638a5.378 5.378 0 01-.623.537 3.771 3.771 0 01-.745.449 3.164 3.164 0 01-.831.218 3.463 3.463 0 01-.99-.005q-1.153-1.661-1.232-1.8a2.621 2.621 0 01.21-2.756 17.892 17.892 0 011.637-2.325 4.76 4.76 0 011.88-1.433 1.432 1.432 0 011.082-.033 1.79 1.79 0 01.854.688q.004.03.398.722.15.01.498.05a5.142 5.142 0 00.556.04q.129.285.352.818t.259.593zm-2.687.14a1.2 1.2 0 00.036-1.232 4.579 4.579 0 00-1.53 1.07 7.466 7.466 0 00-1.382 1.708 2.519 2.519 0 00-.429 1.617l.35-.05a15.221 15.221 0 002.955-3.112zm16.89-6.398l.44.178a1.029 1.029 0 01-.551.946l-1.268.717a34.923 34.923 0 00-6.209 3.66q-.024.035-.521.523a7.505 7.505 0 012.937 1.889 4.51 4.51 0 011.2 3.27 14.586 14.586 0 01-1.124 5.366 14.373 14.373 0 01-3.244 5.304q-.104.104-1.326.935a1.01 1.01 0 01-1.096.035 7.847 7.847 0 01-1.7-1.106 1 1 0 01-.226-.342 4.478 4.478 0 01-.186-.602 2.385 2.385 0 00-.136-.444 2.305 2.305 0 01-.036-.683l.017-1.364q.012-.974.047-1.682t.095-1.345q.336-3.129.966-7.138.182-1.043 1.1-5.96.038-.155.1-.358l.121-.406q.061-.204.1-.358l.28-1.596a22.077 22.077 0 01.49-2.253q.076-.314.248-1.531a6.334 6.334 0 01.473-1.833 2.547 2.547 0 010-.643q.04-.35.081-.58t.135-.633q.093-.402.126-.587a13.293 13.293 0 01.965-3.098 1.2 1.2 0 01.589-.577 1.111 1.111 0 01.774-.094 1.482 1.482 0 01.776.548 1.345 1.345 0 01.371.846l-.138.289q-.325.016-.654.003a2.626 2.626 0 00-.199.387q-.074.19-.15.41a3.594 3.594 0 00-.11.39q-.035.169-.086.446t-.064.404q-.24 1.052-.523 2.648-.038.365-.148 1.098t-.153 1.069l-.065.36q-.033.184-.069.354t-.082.37q-.047.202-.067.37a2.83 2.83 0 01-.07.354q-.048.186-.082.37-.514 2.707-.834 4.46-.022.063-.269 1.684 1.686-1.136 1.769-1.178a27.547 27.547 0 015.59-2.975 8.765 8.765 0 011.595-.317zm-6.792 8.44a6.837 6.837 0 00-2.86-.463q-.081.49-.27 1.474t-.308 1.734q-.118.75-.204 1.42-.28 2.254-.534 6.18a3.634 3.634 0 00.333 1.957q.47-.246.5-.25a9.791 9.791 0 002.068-2.866 22.106 22.106 0 001.482-3.65 13.9 13.9 0 00.515-2.915 3.749 3.749 0 00-.053-1.339 2.461 2.461 0 00-.668-1.28zm16.725-8.018a4.209 4.209 0 01-.269 2.551 12.583 12.583 0 01-2.915 4.247 6.279 6.279 0 01-2.103 1.345 3.534 3.534 0 01-2.107.134 3.374 3.374 0 01-1.776-1.14 9.375 9.375 0 01-.83-1.05 3.578 3.578 0 01-.22-2.632 6.637 6.637 0 011.76-3.36.688.688 0 00.149-.217.924.924 0 01.173-.248 6.67 6.67 0 01.976-.887 1.689 1.689 0 012.51.513.521.521 0 00.079.138.688.688 0 00.142.16 2.372 2.372 0 01.569.989 2.21 2.21 0 01.047 1.055 3.493 3.493 0 01-.357.96 3.3 3.3 0 01-.616.805 4.317 4.317 0 01-3.51 1.484l-.262.037a1.762 1.762 0 00.072 1.052 1.1 1.1 0 00.79.441 3.121 3.121 0 001.883-.146 6.737 6.737 0 002.462-1.962 10.124 10.124 0 002.35-4.673 3.022 3.022 0 01.264-.456.9.9 0 01.739.86zm-5.893.175a5.445 5.445 0 00-2.034 2.68 2.821 2.821 0 001.704-1.003 1.839 1.839 0 00.327-1.677zM54.134 59.183h2v-.778h-2zm7.501 1.839a1.693 1.693 0 001.135-.533h.022l.088.43h.872v-5.913h-1.077v1.459l.044.652a1.4 1.4 0 00-1.04-.452c-.886 0-1.721.83-1.721 2.185s.659 2.172 1.677 2.172zm.278-.9c-.542 0-.85-.43-.85-1.289 0-.83.388-1.274.85-1.274a1.083 1.083 0 01.762.311v1.822a.91.91 0 01-.762.43zm3.728.793h1.069v-4.146h-1.069zm.542-4.815a.6.6 0 00.637-.593.591.591 0 00-.637-.593.593.593 0 00-.645.593.6.6 0 00.646.595zm3.59 4.922c1.069 0 1.633-.585 1.633-1.311 0-.77-.6-1.044-1.143-1.252-.432-.163-.835-.274-.835-.578 0-.237.176-.4.542-.4a1.569 1.569 0 01.886.356l.483-.659a2.281 2.281 0 00-1.4-.511c-.923 0-1.524.526-1.524 1.274 0 .689.6 1.007 1.121 1.207.432.17.857.311.857.622 0 .259-.183.437-.593.437a1.77 1.77 0 01-1.1-.452l-.491.681a2.568 2.568 0 001.564.586zm3.186-.1h1.069v-2.857a1.175 1.175 0 01.857-.467c.4 0 .579.23.579.867v2.452h1.077v-2.585c0-1.044-.381-1.667-1.267-1.667a1.858 1.858 0 00-1.289.607l.044-.778v-1.488H72.96zm8.482-1.519a1.056 1.056 0 01.447-.77 7.721 7.721 0 001.223 1.281 1.458 1.458 0 01-.791.274.8.8 0 01-.879-.79zm.543-2.681c0-.407.227-.667.542-.667.286 0 .41.2.41.474 0 .4-.33.667-.754.926a1.724 1.724 0 01-.198-.733zm3.479 3.407a3.27 3.27 0 01-.96-.393 6.052 6.052 0 00.916-1.881h-.974a4.153 4.153 0 01-.667 1.393 6.9 6.9 0 01-1.172-1.141c.579-.407 1.165-.859 1.165-1.585a1.151 1.151 0 00-1.26-1.193 1.358 1.358 0 00-1.421 1.393 2.608 2.608 0 00.344 1.185 1.82 1.82 0 00-1.018 1.556 1.587 1.587 0 001.773 1.559 2.6 2.6 0 001.665-.579 4.351 4.351 0 001.345.579zm5.6.889a2.022 2.022 0 001.34-.5l-.425-.719a1.266 1.266 0 01-.8.333c-.593 0-1.018-.5-1.018-1.281s.425-1.3 1.047-1.3a.931.931 0 01.63.274l.513-.7a1.782 1.782 0 00-1.196-.46 2.06 2.06 0 00-2.095 2.185 1.973 1.973 0 002 2.172zm4.344 0a2.012 2.012 0 001.97-2.17 2.016 2.016 0 00-1.97-2.185 2.016 2.016 0 00-1.97 2.185 2.012 2.012 0 001.966 2.174zm0-.889c-.557 0-.872-.5-.872-1.281s.315-1.3.872-1.3.872.511.872 1.3-.319 1.284-.876 1.284zm5.947-5.079a2.13 2.13 0 00-.776-.148c-1.029 0-1.424.667-1.424 1.533v.341l-.55.046v.807h.55v3.289h1.076v-3.29h.769v-.859h-.769v-.356c0-.459.176-.652.5-.652a1.324 1.324 0 01.432.089zm3.457 0a2.13 2.13 0 00-.776-.148c-1.033 0-1.428.667-1.428 1.533v.341l-.546.046v.807h.549v3.289h1.077v-3.29h.767v-.859h-.767v-.356c0-.459.176-.652.5-.652a1.324 1.324 0 01.432.089zm2.766 5.972a2.568 2.568 0 001.436-.459l-.366-.667a1.678 1.678 0 01-.923.289 1.082 1.082 0 01-1.136-1.039h2.527a2.045 2.045 0 00.051-.5c0-1.148-.586-1.985-1.714-1.985a2.022 2.022 0 00-1.911 2.189 2 2 0 002.036 2.172zm-1-2.593a.93.93 0 01.894-.919c.527 0 .776.356.776.919zm5.988 2.593a2.568 2.568 0 001.436-.459l-.366-.667a1.678 1.678 0 01-.923.289 1.082 1.082 0 01-1.135-1.037h2.527a2.045 2.045 0 00.051-.5c0-1.148-.586-1.985-1.714-1.985a2.022 2.022 0 00-1.912 2.185 2 2 0 002.036 2.174zm-1-2.593a.93.93 0 01.894-.919c.527 0 .776.356.776.919zm6.387.756h2v-.778h-2z" fill="#fff"/></symbol></svg>