
<svg xmlns="http://www.w3.org/2000/svg" width="24" height="24" viewBox="0 0 24 24">
  <g id="グループ_334" data-name="グループ 334" transform="translate(962 110)">
    <rect id="長方形_23082" data-name="長方形 23082" width="24" height="24" transform="translate(-962 -110)" fill="none"/>
    <path id="Icon_awesome-youtube" data-name="Icon awesome-youtube" d="M21.611,6.81a2.639,2.639,0,0,0-1.857-1.869c-1.638-.442-8.2-.442-8.2-.442s-6.567,0-8.2.442A2.639,2.639,0,0,0,1.489,6.81,27.681,27.681,0,0,0,1.05,11.9a27.681,27.681,0,0,0,.439,5.087,2.6,2.6,0,0,0,1.857,1.839c1.638.442,8.2.442,8.2.442s6.567,0,8.2-.442a2.6,2.6,0,0,0,1.857-1.839A27.681,27.681,0,0,0,22.05,11.9a27.681,27.681,0,0,0-.439-5.087ZM9.4,15.02V8.775L14.891,11.9,9.4,15.02Z" transform="translate(-961.05 -110)" fill="#222"/>
  </g>
</svg>
